<svg class="frappe-chart chart chart-container" width="1055" height="280" xmlns="http://www.w3.org/2000/svg" xmlns:xlink="http://www.w3.org/1999/xlink"><style>.chart-container{position:relative;font-family:-apple-system,BlinkMacSystemFont,'Segoe UI','Roboto','Oxygen','Ubuntu','Cantarell','Fira Sans','Droid Sans','Helvetica Neue',sans-serif}.chart-container .axis,.chart-container .chart-label{fill:#555b51}.chart-container .axis line,.chart-container .chart-label line{stroke:#dadada}.chart-container .dataset-units circle{stroke:#fff;stroke-width:2}.chart-container .dataset-units path{fill:none;stroke-opacity:1;stroke-width:2px}.chart-container .dataset-path{stroke-width:2px}.chart-container .path-group path{fill:none;stroke-opacity:1;stroke-width:2px}.chart-container line.dashed{stroke-dasharray:5,3}.chart-container .axis-line .specific-value{text-anchor:start}.chart-container .axis-line .y-line{text-anchor:end}.chart-container .axis-line .x-line{text-anchor:middle}.chart-container .legend-dataset-text{fill:#6c7680;font-weight:600}.graph-svg-tip{position:absolute;z-index:99999;padding:10px;font-size:12px;color:#959da5;text-align:center;background:rgba(0,0,0,.8);border-radius:3px}.graph-svg-tip ul{padding-left:0;display:flex}.graph-svg-tip ol{padding-left:0;display:flex}.graph-svg-tip ul.data-point-list li{min-width:90px;flex:1;font-weight:600}.graph-svg-tip strong{color:#dfe2e5;font-weight:600}.graph-svg-tip .svg-pointer{position:absolute;height:5px;margin:0 0 0 -5px;content:' ';border:5px solid transparent;border-top-color:rgba(0,0,0,.8)}.graph-svg-tip.comparison{padding:0;text-align:left;pointer-events:none}.graph-svg-tip.comparison .title{display:block;padding:10px;margin:0;font-weight:600;line-height:1;pointer-events:none}.graph-svg-tip.comparison ul{margin:0;white-space:nowrap;list-style:none}.graph-svg-tip.comparison li{display:inline-block;padding:5px 10px}</style><defs><linearGradient id="path-fill-gradient-#51ab36-lighter" x1="0" x2="0" y1="0" y2="1"><stop style="stop-color: #51ab36" offset="0%" stop-opacity="0.4"></stop><stop style="stop-color: #51ab36" offset="50%" stop-opacity="0.2"></stop><stop style="stop-color: #51ab36" offset="100%" stop-opacity="0"></stop></linearGradient><linearGradient id="path-fill-gradient-#36114C-lighter" x1="0" x2="0" y1="0" y2="1"><stop style="stop-color: #36114C" offset="0%" stop-opacity="0.4"></stop><stop style="stop-color: #36114C" offset="50%" stop-opacity="0.2"></stop><stop style="stop-color: #36114C" offset="100%" stop-opacity="0"></stop></linearGradient><linearGradient id="path-fill-gradient-#51ab36-lighter" x1="0" x2="0" y1="0" y2="1"><stop style="stop-color: #51ab36" offset="0%" stop-opacity="0.4"></stop><stop style="stop-color: #51ab36" offset="50%" stop-opacity="0.2"></stop><stop style="stop-color: #51ab36" offset="100%" stop-opacity="0"></stop></linearGradient><linearGradient id="path-fill-gradient-#36114C-lighter" x1="0" x2="0" y1="0" y2="1"><stop style="stop-color: #36114C" offset="0%" stop-opacity="0.4"></stop><stop style="stop-color: #36114C" offset="50%" stop-opacity="0.2"></stop><stop style="stop-color: #36114C" offset="100%" stop-opacity="0"></stop></linearGradient><linearGradient id="path-fill-gradient-#51ab36-lighter" x1="0" x2="0" y1="0" y2="1"><stop style="stop-color: #51ab36" offset="0%" stop-opacity="0.4"></stop><stop style="stop-color: #51ab36" offset="50%" stop-opacity="0.2"></stop><stop style="stop-color: #51ab36" offset="100%" stop-opacity="0"></stop></linearGradient><linearGradient id="path-fill-gradient-#36114C-lighter" x1="0" x2="0" y1="0" y2="1"><stop style="stop-color: #36114C" offset="0%" stop-opacity="0.4"></stop><stop style="stop-color: #36114C" offset="50%" stop-opacity="0.2"></stop><stop style="stop-color: #36114C" offset="100%" stop-opacity="0"></stop></linearGradient><linearGradient id="path-fill-gradient-#51ab36-lighter" x1="0" x2="0" y1="0" y2="1"><stop style="stop-color: #51ab36" offset="0%" stop-opacity="0.4"></stop><stop style="stop-color: #51ab36" offset="50%" stop-opacity="0.2"></stop><stop style="stop-color: #51ab36" offset="100%" stop-opacity="0"></stop></linearGradient><linearGradient id="path-fill-gradient-#36114C-lighter" x1="0" x2="0" y1="0" y2="1"><stop style="stop-color: #36114C" offset="0%" stop-opacity="0.4"></stop><stop style="stop-color: #36114C" offset="50%" stop-opacity="0.2"></stop><stop style="stop-color: #36114C" offset="100%" stop-opacity="0"></stop></linearGradient><linearGradient id="path-fill-gradient-#51ab36-lighter" x1="0" x2="0" y1="0" y2="1"><stop style="stop-color: #51ab36" offset="0%" stop-opacity="0.4"></stop><stop style="stop-color: #51ab36" offset="50%" stop-opacity="0.2"></stop><stop style="stop-color: #51ab36" offset="100%" stop-opacity="0"></stop></linearGradient><linearGradient id="path-fill-gradient-#36114C-lighter" x1="0" x2="0" y1="0" y2="1"><stop style="stop-color: #36114C" offset="0%" stop-opacity="0.4"></stop><stop style="stop-color: #36114C" offset="50%" stop-opacity="0.2"></stop><stop style="stop-color: #36114C" offset="100%" stop-opacity="0"></stop></linearGradient><linearGradient id="path-fill-gradient-#51ab36-lighter" x1="0" x2="0" y1="0" y2="1"><stop style="stop-color: #51ab36" offset="0%" stop-opacity="0.4"></stop><stop style="stop-color: #51ab36" offset="50%" stop-opacity="0.2"></stop><stop style="stop-color: #51ab36" offset="100%" stop-opacity="0"></stop></linearGradient><linearGradient id="path-fill-gradient-#36114C-lighter" x1="0" x2="0" y1="0" y2="1"><stop style="stop-color: #36114C" offset="0%" stop-opacity="0.4"></stop><stop style="stop-color: #36114C" offset="50%" stop-opacity="0.2"></stop><stop style="stop-color: #36114C" offset="100%" stop-opacity="0"></stop></linearGradient><linearGradient id="path-fill-gradient-#51ab36-lighter" x1="0" x2="0" y1="0" y2="1"><stop style="stop-color: #51ab36" offset="0%" stop-opacity="0.4"></stop><stop style="stop-color: #51ab36" offset="50%" stop-opacity="0.2"></stop><stop style="stop-color: #51ab36" offset="100%" stop-opacity="0"></stop></linearGradient><linearGradient id="path-fill-gradient-#36114C-lighter" x1="0" x2="0" y1="0" y2="1"><stop style="stop-color: #36114C" offset="0%" stop-opacity="0.4"></stop><stop style="stop-color: #36114C" offset="50%" stop-opacity="0.2"></stop><stop style="stop-color: #36114C" offset="100%" stop-opacity="0"></stop></linearGradient><linearGradient id="path-fill-gradient-#51ab36-lighter" x1="0" x2="0" y1="0" y2="1"><stop style="stop-color: #51ab36" offset="0%" stop-opacity="0.4"></stop><stop style="stop-color: #51ab36" offset="50%" stop-opacity="0.2"></stop><stop style="stop-color: #51ab36" offset="100%" stop-opacity="0"></stop></linearGradient><linearGradient id="path-fill-gradient-#36114C-lighter" x1="0" x2="0" y1="0" y2="1"><stop style="stop-color: #36114C" offset="0%" stop-opacity="0.4"></stop><stop style="stop-color: #36114C" offset="50%" stop-opacity="0.2"></stop><stop style="stop-color: #36114C" offset="100%" stop-opacity="0"></stop></linearGradient><linearGradient id="path-fill-gradient-#51ab36-lighter" x1="0" x2="0" y1="0" y2="1"><stop style="stop-color: #51ab36" offset="0%" stop-opacity="0.4"></stop><stop style="stop-color: #51ab36" offset="50%" stop-opacity="0.2"></stop><stop style="stop-color: #51ab36" offset="100%" stop-opacity="0"></stop></linearGradient><linearGradient id="path-fill-gradient-#36114C-lighter" x1="0" x2="0" y1="0" y2="1"><stop style="stop-color: #36114C" offset="0%" stop-opacity="0.4"></stop><stop style="stop-color: #36114C" offset="50%" stop-opacity="0.2"></stop><stop style="stop-color: #36114C" offset="100%" stop-opacity="0"></stop></linearGradient><linearGradient id="path-fill-gradient-#51ab36-lighter" x1="0" x2="0" y1="0" y2="1"><stop style="stop-color: #51ab36" offset="0%" stop-opacity="0.4"></stop><stop style="stop-color: #51ab36" offset="50%" stop-opacity="0.2"></stop><stop style="stop-color: #51ab36" offset="100%" stop-opacity="0"></stop></linearGradient><linearGradient id="path-fill-gradient-#36114C-lighter" x1="0" x2="0" y1="0" y2="1"><stop style="stop-color: #36114C" offset="0%" stop-opacity="0.4"></stop><stop style="stop-color: #36114C" offset="50%" stop-opacity="0.2"></stop><stop style="stop-color: #36114C" offset="100%" stop-opacity="0"></stop></linearGradient><linearGradient id="path-fill-gradient-#51ab36-lighter" x1="0" x2="0" y1="0" y2="1"><stop style="stop-color: #51ab36" offset="0%" stop-opacity="0.4"></stop><stop style="stop-color: #51ab36" offset="50%" stop-opacity="0.2"></stop><stop style="stop-color: #51ab36" offset="100%" stop-opacity="0"></stop></linearGradient><linearGradient id="path-fill-gradient-#36114C-lighter" x1="0" x2="0" y1="0" y2="1"><stop style="stop-color: #36114C" offset="0%" stop-opacity="0.4"></stop><stop style="stop-color: #36114C" offset="50%" stop-opacity="0.2"></stop><stop style="stop-color: #36114C" offset="100%" stop-opacity="0"></stop></linearGradient><linearGradient id="path-fill-gradient-#51ab36-lighter" x1="0" x2="0" y1="0" y2="1"><stop style="stop-color: #51ab36" offset="0%" stop-opacity="0.4"></stop><stop style="stop-color: #51ab36" offset="50%" stop-opacity="0.2"></stop><stop style="stop-color: #51ab36" offset="100%" stop-opacity="0"></stop></linearGradient><linearGradient id="path-fill-gradient-#36114C-lighter" x1="0" x2="0" y1="0" y2="1"><stop style="stop-color: #36114C" offset="0%" stop-opacity="0.4"></stop><stop style="stop-color: #36114C" offset="50%" stop-opacity="0.2"></stop><stop style="stop-color: #36114C" offset="100%" stop-opacity="0"></stop></linearGradient><linearGradient id="path-fill-gradient-#51ab36-lighter" x1="0" x2="0" y1="0" y2="1"><stop style="stop-color: #51ab36" offset="0%" stop-opacity="0.4"></stop><stop style="stop-color: #51ab36" offset="50%" stop-opacity="0.2"></stop><stop style="stop-color: #51ab36" offset="100%" stop-opacity="0"></stop></linearGradient><linearGradient id="path-fill-gradient-#36114C-lighter" x1="0" x2="0" y1="0" y2="1"><stop style="stop-color: #36114C" offset="0%" stop-opacity="0.4"></stop><stop style="stop-color: #36114C" offset="50%" stop-opacity="0.2"></stop><stop style="stop-color: #36114C" offset="100%" stop-opacity="0"></stop></linearGradient><linearGradient id="path-fill-gradient-#51ab36-lighter" x1="0" x2="0" y1="0" y2="1"><stop style="stop-color: #51ab36" offset="0%" stop-opacity="0.4"></stop><stop style="stop-color: #51ab36" offset="50%" stop-opacity="0.2"></stop><stop style="stop-color: #51ab36" offset="100%" stop-opacity="0"></stop></linearGradient><linearGradient id="path-fill-gradient-#36114C-lighter" x1="0" x2="0" y1="0" y2="1"><stop style="stop-color: #36114C" offset="0%" stop-opacity="0.4"></stop><stop style="stop-color: #36114C" offset="50%" stop-opacity="0.2"></stop><stop style="stop-color: #36114C" offset="100%" stop-opacity="0"></stop></linearGradient><linearGradient id="path-fill-gradient-#51ab36-lighter" x1="0" x2="0" y1="0" y2="1"><stop style="stop-color: #51ab36" offset="0%" stop-opacity="0.4"></stop><stop style="stop-color: #51ab36" offset="50%" stop-opacity="0.2"></stop><stop style="stop-color: #51ab36" offset="100%" stop-opacity="0"></stop></linearGradient><linearGradient id="path-fill-gradient-#36114C-lighter" x1="0" x2="0" y1="0" y2="1"><stop style="stop-color: #36114C" offset="0%" stop-opacity="0.4"></stop><stop style="stop-color: #36114C" offset="50%" stop-opacity="0.2"></stop><stop style="stop-color: #36114C" offset="100%" stop-opacity="0"></stop></linearGradient><linearGradient id="path-fill-gradient-#51ab36-lighter" x1="0" x2="0" y1="0" y2="1"><stop style="stop-color: #51ab36" offset="0%" stop-opacity="0.4"></stop><stop style="stop-color: #51ab36" offset="50%" stop-opacity="0.2"></stop><stop style="stop-color: #51ab36" offset="100%" stop-opacity="0"></stop></linearGradient><linearGradient id="path-fill-gradient-#36114C-lighter" x1="0" x2="0" y1="0" y2="1"><stop style="stop-color: #36114C" offset="0%" stop-opacity="0.4"></stop><stop style="stop-color: #36114C" offset="50%" stop-opacity="0.2"></stop><stop style="stop-color: #36114C" offset="100%" stop-opacity="0"></stop></linearGradient><linearGradient id="path-fill-gradient-#51ab36-lighter" x1="0" x2="0" y1="0" y2="1"><stop style="stop-color: #51ab36" offset="0%" stop-opacity="0.4"></stop><stop style="stop-color: #51ab36" offset="50%" stop-opacity="0.2"></stop><stop style="stop-color: #51ab36" offset="100%" stop-opacity="0"></stop></linearGradient><linearGradient id="path-fill-gradient-#36114C-lighter" x1="0" x2="0" y1="0" y2="1"><stop style="stop-color: #36114C" offset="0%" stop-opacity="0.4"></stop><stop style="stop-color: #36114C" offset="50%" stop-opacity="0.2"></stop><stop style="stop-color: #36114C" offset="100%" stop-opacity="0"></stop></linearGradient></defs><g class="line-chart chart-draw-area" transform="translate(50, 30)"><g class="y axis" transform=""><g transform="translate(0, 170)" stroke-opacity="1"><line class="line-horizontal " x1="-6" x2="981" y1="0" y2="0" style="stroke: rgb(218, 218, 218);"></line><text x="-10" y="0" dy="3px" font-size="10px" text-anchor="end">0</text></g><g transform="translate(0, 127.5)" stroke-opacity="1"><line class="line-horizontal " x1="-6" x2="981" y1="0" y2="0" style="stroke: rgb(218, 218, 218);"></line><text x="-10" y="0" dy="3px" font-size="10px" text-anchor="end">200</text></g><g transform="translate(0, 85)" stroke-opacity="1"><line class="line-horizontal " x1="-6" x2="981" y1="0" y2="0" style="stroke: rgb(218, 218, 218);"></line><text x="-10" y="0" dy="3px" font-size="10px" text-anchor="end">400</text></g><g transform="translate(0, 42.5)" stroke-opacity="1"><line class="line-horizontal " x1="-6" x2="981" y1="0" y2="0" style="stroke: rgb(218, 218, 218);"></line><text x="-10" y="0" dy="3px" font-size="10px" text-anchor="end">600</text></g><g transform="translate(0, 0)" stroke-opacity="1"><line class="line-horizontal " x1="-6" x2="981" y1="0" y2="0" style="stroke: rgb(218, 218, 218);"></line><text x="-10" y="0" dy="3px" font-size="10px" text-anchor="end">800</text></g></g><g class="x axis" transform=""><g transform="translate(17.41, 0)"><line class="line-vertical " x1="0" x2="0" y1="176" y2="170" style="stroke: rgb(218, 218, 218);"></line><text x="0" y="180" dy="10px" font-size="10px" text-anchor="middle">4 May</text></g><g transform="translate(52.23, 0)"><line class="line-vertical " x1="0" x2="0" y1="176" y2="170" style="stroke: rgb(218, 218, 218);"></line><text x="0" y="180" dy="10px" font-size="10px" text-anchor="middle"></text></g><g transform="translate(87.05, 0)"><line class="line-vertical " x1="0" x2="0" y1="176" y2="170" style="stroke: rgb(218, 218, 218);"></line><text x="0" y="180" dy="10px" font-size="10px" text-anchor="middle">6 May</text></g><g transform="translate(121.88, 0)"><line class="line-vertical " x1="0" x2="0" y1="176" y2="170" style="stroke: rgb(218, 218, 218);"></line><text x="0" y="180" dy="10px" font-size="10px" text-anchor="middle"></text></g><g transform="translate(156.7, 0)"><line class="line-vertical " x1="0" x2="0" y1="176" y2="170" style="stroke: rgb(218, 218, 218);"></line><text x="0" y="180" dy="10px" font-size="10px" text-anchor="middle">8 May</text></g><g transform="translate(191.52, 0)"><line class="line-vertical " x1="0" x2="0" y1="176" y2="170" style="stroke: rgb(218, 218, 218);"></line><text x="0" y="180" dy="10px" font-size="10px" text-anchor="middle"></text></g><g transform="translate(226.34, 0)"><line class="line-vertical " x1="0" x2="0" y1="176" y2="170" style="stroke: rgb(218, 218, 218);"></line><text x="0" y="180" dy="10px" font-size="10px" text-anchor="middle">10 May</text></g><g transform="translate(261.16, 0)"><line class="line-vertical " x1="0" x2="0" y1="176" y2="170" style="stroke: rgb(218, 218, 218);"></line><text x="0" y="180" dy="10px" font-size="10px" text-anchor="middle"></text></g><g transform="translate(295.98, 0)"><line class="line-vertical " x1="0" x2="0" y1="176" y2="170" style="stroke: rgb(218, 218, 218);"></line><text x="0" y="180" dy="10px" font-size="10px" text-anchor="middle">12 May</text></g><g transform="translate(330.8, 0)"><line class="line-vertical " x1="0" x2="0" y1="176" y2="170" style="stroke: rgb(218, 218, 218);"></line><text x="0" y="180" dy="10px" font-size="10px" text-anchor="middle"></text></g><g transform="translate(365.62, 0)"><line class="line-vertical " x1="0" x2="0" y1="176" y2="170" style="stroke: rgb(218, 218, 218);"></line><text x="0" y="180" dy="10px" font-size="10px" text-anchor="middle">14 May</text></g><g transform="translate(400.45, 0)"><line class="line-vertical " x1="0" x2="0" y1="176" y2="170" style="stroke: rgb(218, 218, 218);"></line><text x="0" y="180" dy="10px" font-size="10px" text-anchor="middle"></text></g><g transform="translate(435.27, 0)"><line class="line-vertical " x1="0" x2="0" y1="176" y2="170" style="stroke: rgb(218, 218, 218);"></line><text x="0" y="180" dy="10px" font-size="10px" text-anchor="middle">16 May</text></g><g transform="translate(470.09, 0)"><line class="line-vertical " x1="0" x2="0" y1="176" y2="170" style="stroke: rgb(218, 218, 218);"></line><text x="0" y="180" dy="10px" font-size="10px" text-anchor="middle"></text></g><g transform="translate(504.91, 0)"><line class="line-vertical " x1="0" x2="0" y1="176" y2="170" style="stroke: rgb(218, 218, 218);"></line><text x="0" y="180" dy="10px" font-size="10px" text-anchor="middle">18 May</text></g><g transform="translate(539.73, 0)"><line class="line-vertical " x1="0" x2="0" y1="176" y2="170" style="stroke: rgb(218, 218, 218);"></line><text x="0" y="180" dy="10px" font-size="10px" text-anchor="middle"></text></g><g transform="translate(574.55, 0)"><line class="line-vertical " x1="0" x2="0" y1="176" y2="170" style="stroke: rgb(218, 218, 218);"></line><text x="0" y="180" dy="10px" font-size="10px" text-anchor="middle">20 May</text></g><g transform="translate(609.38, 0)"><line class="line-vertical " x1="0" x2="0" y1="176" y2="170" style="stroke: rgb(218, 218, 218);"></line><text x="0" y="180" dy="10px" font-size="10px" text-anchor="middle"></text></g><g transform="translate(644.2, 0)"><line class="line-vertical " x1="0" x2="0" y1="176" y2="170" style="stroke: rgb(218, 218, 218);"></line><text x="0" y="180" dy="10px" font-size="10px" text-anchor="middle">22 May</text></g><g transform="translate(679.02, 0)"><line class="line-vertical " x1="0" x2="0" y1="176" y2="170" style="stroke: rgb(218, 218, 218);"></line><text x="0" y="180" dy="10px" font-size="10px" text-anchor="middle"></text></g><g transform="translate(713.84, 0)"><line class="line-vertical " x1="0" x2="0" y1="176" y2="170" style="stroke: rgb(218, 218, 218);"></line><text x="0" y="180" dy="10px" font-size="10px" text-anchor="middle">24 May</text></g><g transform="translate(748.66, 0)"><line class="line-vertical " x1="0" x2="0" y1="176" y2="170" style="stroke: rgb(218, 218, 218);"></line><text x="0" y="180" dy="10px" font-size="10px" text-anchor="middle"></text></g><g transform="translate(783.48, 0)"><line class="line-vertical " x1="0" x2="0" y1="176" y2="170" style="stroke: rgb(218, 218, 218);"></line><text x="0" y="180" dy="10px" font-size="10px" text-anchor="middle">26 May</text></g><g transform="translate(818.3, 0)"><line class="line-vertical " x1="0" x2="0" y1="176" y2="170" style="stroke: rgb(218, 218, 218);"></line><text x="0" y="180" dy="10px" font-size="10px" text-anchor="middle"></text></g><g transform="translate(853.13, 0)"><line class="line-vertical " x1="0" x2="0" y1="176" y2="170" style="stroke: rgb(218, 218, 218);"></line><text x="0" y="180" dy="10px" font-size="10px" text-anchor="middle">28 May</text></g><g transform="translate(887.95, 0)"><line class="line-vertical " x1="0" x2="0" y1="176" y2="170" style="stroke: rgb(218, 218, 218);"></line><text x="0" y="180" dy="10px" font-size="10px" text-anchor="middle"></text></g><g transform="translate(922.77, 0)"><line class="line-vertical " x1="0" x2="0" y1="176" y2="170" style="stroke: rgb(218, 218, 218);"></line><text x="0" y="180" dy="10px" font-size="10px" text-anchor="middle">30 May</text></g><g transform="translate(957.59, 0)"><line class="line-vertical " x1="0" x2="0" y1="176" y2="170" style="stroke: rgb(218, 218, 218);"></line><text x="0" y="180" dy="10px" font-size="10px" text-anchor="middle"></text></g></g><g class="dataset-units dataset-line dataset-0" transform=""><path class="line-graph-path" d="M17.41,170L52.23,170L87.05,170L121.88,170L156.7,160.65L191.52,78.84L226.34,67.36L261.16,165.32L295.98,130.47L330.8,169.79L365.62,150.03L400.45,118.15L435.27,22.1L470.09,160.86L504.91,161.71L539.73,162.99L574.55,162.14L609.38,160.44L644.2,119.64L679.02,152.36L713.84,147.26L748.66,141.74L783.48,145.56L818.3,147.26L853.13,151.09L887.95,151.09L922.77,169.15L957.59,170" style="stroke: rgb(81, 171, 54); fill: none; stroke-width: 2;"></path><path class="region-fill" d="M17.41,170L17.41,170L52.23,170L87.05,170L121.88,170L156.7,160.65L191.52,78.84L226.34,67.36L261.16,165.32L295.98,130.47L330.8,169.79L365.62,150.03L400.45,118.15L435.27,22.1L470.09,160.86L504.91,161.71L539.73,162.99L574.55,162.14L609.38,160.44L644.2,119.64L679.02,152.36L713.84,147.26L748.66,141.74L783.48,145.56L818.3,147.26L853.13,151.09L887.95,151.09L922.77,169.15L957.59,170L957.59,170" style="stroke: none; fill: url(&quot;#path-fill-gradient-#51ab36-lighter&quot;); stroke-width: 2;"></path></g><g class="dataset-units dataset-line dataset-1" transform=""><path class="line-graph-path" d="M17.41,170L52.23,170L87.05,170L121.88,170L156.7,170L191.52,170L226.34,170L261.16,170L295.98,170L330.8,170L365.62,170L400.45,170L435.27,170L470.09,170L504.91,170L539.73,170L574.55,170L609.38,170L644.2,170L679.02,170L713.84,170L748.66,170L783.48,170L818.3,170L853.13,170L887.95,170L922.77,170L957.59,170" style="stroke: rgb(54, 17, 76); fill: none; stroke-width: 2;"></path><path class="region-fill" d="M17.41,170L17.41,170L52.23,170L87.05,170L121.88,170L156.7,170L191.52,170L226.34,170L261.16,170L295.98,170L330.8,170L365.62,170L400.45,170L435.27,170L470.09,170L504.91,170L539.73,170L574.55,170L609.38,170L644.2,170L679.02,170L713.84,170L748.66,170L783.48,170L818.3,170L853.13,170L887.95,170L922.77,170L957.59,170L957.59,170" style="stroke: none; fill: url(&quot;#path-fill-gradient-#36114C-lighter&quot;); stroke-width: 2;"></path></g></g><g class="chart-legend" transform="translate(50, 240)"><g transform="translate(0, 0)"><rect class="legend-bar" x="0" y="0" width="100" height="2px" fill="#51ab36"></rect><text class="legend-dataset-text" x="0" y="0" dy="20px" font-size="12px" text-anchor="start" fill="#555b51">Current period</text></g><g transform="translate(100, 0)"><rect class="legend-bar" x="0" y="0" width="100" height="2px" fill="#36114C"></rect><text class="legend-dataset-text" x="0" y="0" dy="20px" font-size="12px" text-anchor="start" fill="#555b51">Previous period</text></g></g></svg>